<?xml version="1.0" standalone="no"?>
<!DOCTYPE svg PUBLIC "-//W3C//DTD SVG 20010904//EN"
        "http://www.w3.org/TR/2001/REC-SVG-20010904/DTD/svg10.dtd">
<svg version="1.0" xmlns="http://www.w3.org/2000/svg"
     width="200.000000pt" height="200.000000pt" viewBox="0 0 200.000000 200.000000"
     preserveAspectRatio="xMidYMid meet">

    <g transform="translate(0.000000,200.000000) scale(0.100000,-0.100000)"
       fill="#000000" stroke="none">
        <path d="M605 1608 c-11 -6 -23 -16 -27 -22 -4 -6 -8 -137 -8 -291 0 -238 2
-284 16 -303 15 -21 21 -22 190 -22 l174 0 0 -65 0 -65 -30 0 c-16 0 -30 -4
-30 -10 0 -6 57 -10 151 -10 97 0 148 4 144 10 -3 6 -20 10 -36 10 l-30 0 3
63 3 62 176 3 c134 2 180 6 188 16 8 9 11 103 9 312 l-3 298 -25 13 c-34 17
-835 18 -865 1z m858 -20 c16 -12 17 -39 15 -303 l-3 -290 -429 -3 c-308 -1
-433 1 -442 9 -11 9 -14 67 -14 290 0 239 2 280 16 293 13 14 66 16 428 16
314 0 416 -3 429 -12z m-363 -683 l0 -65 -65 0 -65 0 0 65 0 65 65 0 65 0 0
-65z"/>
        <path d="M1031 1303 c-35 -87 -66 -164 -69 -172 -3 -8 0 -12 8 -9 10 3 140
308 140 330 0 4 -4 8 -8 8 -5 0 -37 -71 -71 -157z"/>
        <path d="M783 1356 c-51 -29 -96 -55 -99 -59 -6 -6 35 -33 138 -90 37 -21 69
-33 73 -28 3 5 -35 31 -85 58 -49 26 -90 51 -90 54 0 3 38 26 85 52 82 46 110
68 83 66 -7 -1 -55 -25 -105 -53z"/>
        <path d="M1180 1402 c0 -5 40 -31 90 -58 103 -56 104 -48 -18 -115 -40 -22
-70 -44 -67 -49 7 -11 200 96 200 111 0 11 -179 118 -197 119 -5 0 -8 -4 -8
-8z"/>
        <path d="M820 680 c0 -5 9 -10 20 -10 19 0 20 -7 20 -168 0 -117 4 -172 12
-180 15 -15 58 -16 58 -2 0 6 -9 10 -20 10 -19 0 -20 7 -20 180 l0 180 -35 0
c-19 0 -35 -4 -35 -10z"/>
        <path d="M120 611 c0 -5 9 -11 20 -14 19 -5 20 -14 20 -146 0 -87 4 -141 10
-141 6 0 10 17 10 38 0 27 9 47 33 76 l33 38 59 -76 c33 -42 65 -76 72 -76 20
0 17 5 -47 87 -33 41 -60 79 -60 83 0 18 96 120 112 120 10 0 18 5 18 10 0 6
-21 10 -46 10 -38 0 -45 -3 -40 -16 4 -11 -17 -43 -61 -97 l-68 -81 -3 97 -3
97 -29 0 c-17 0 -30 -4 -30 -9z"/>
        <path d="M990 596 c0 -9 7 -16 16 -16 9 0 14 5 12 12 -6 18 -28 21 -28 4z"/>
        <path d="M686 583 c-3 -3 -6 -24 -6 -45 0 -31 -3 -38 -20 -38 -11 0 -20 -4
-20 -10 0 -5 9 -10 20 -10 18 0 20 -7 20 -66 0 -88 10 -104 63 -104 24 0 52 7
63 15 17 13 14 14 -36 12 l-55 -2 -3 73 -3 72 46 0 c25 0 45 5 45 10 0 6 -20
10 -45 10 l-45 0 0 39 c0 38 -10 57 -24 44z"/>
        <path d="M1370 550 c0 -33 -4 -43 -20 -47 -11 -3 -20 -9 -20 -13 0 -4 9 -10
20 -13 18 -4 20 -14 20 -74 0 -40 5 -74 12 -81 13 -13 75 -16 102 -6 32 12 15
22 -36 20 l-53 -1 -3 73 -3 72 51 0 c27 0 50 5 50 10 0 6 -22 10 -50 10 l-50
0 0 39 c0 22 -4 43 -10 46 -6 4 -10 -10 -10 -35z"/>
        <path d="M473 495 c-39 -17 -53 -42 -53 -95 0 -57 34 -90 92 -90 46 1 68 12
86 47 28 51 3 124 -49 142 -39 13 -37 13 -76 -4z m92 -35 c24 -26 23 -84 -1
-111 -26 -29 -78 -25 -103 7 -27 34 -27 64 0 98 26 33 77 36 104 6z"/>
        <path d="M1158 491 c-30 -15 -38 -16 -42 -5 -6 16 -56 19 -56 4 0 -5 9 -10 20
-10 18 0 20 -7 20 -85 0 -69 3 -85 15 -85 12 0 15 14 15 70 0 63 2 71 24 85
14 9 37 15 53 13 27 -3 28 -5 31 -73 2 -38 8 -75 14 -82 12 -15 58 -18 58 -3
0 6 -9 10 -20 10 -18 0 -20 7 -20 58 0 77 -7 97 -36 111 -32 14 -33 14 -76 -8z"/>
        <path d="M1585 496 c-58 -25 -72 -104 -29 -155 21 -26 33 -31 68 -31 40 0 86
21 86 41 0 14 -26 11 -40 -6 -19 -23 -76 -19 -94 7 -29 42 -22 48 59 48 68 0
75 2 75 20 0 35 -22 69 -53 80 -36 12 -35 12 -72 -4z m89 -38 c22 -31 12 -38
-55 -38 -63 0 -72 9 -42 42 23 26 78 24 97 -4z"/>
        <path d="M1850 499 c-13 -6 -28 -15 -32 -22 -5 -8 -9 -6 -14 6 -7 18 -64 25
-64 7 0 -5 9 -10 20 -10 18 0 20 -7 20 -85 0 -69 3 -85 15 -85 12 0 15 14 15
63 0 72 18 107 55 107 16 0 25 -6 27 -20 4 -29 22 -30 26 -1 3 15 -3 30 -14
38 -21 15 -21 15 -54 2z"/>
        <path d="M950 490 c0 -5 9 -10 20 -10 18 0 20 -7 20 -85 0 -69 3 -85 15 -85
12 0 15 17 15 95 l0 95 -35 0 c-19 0 -35 -4 -35 -10z"/>
    </g>
</svg>
